<mxfile host="app.diagrams.net" modified="2024-02-12T22:34:23.072Z" agent="Mozilla/5.0 (Windows NT 10.0; Win64; x64) AppleWebKit/537.36 (KHTML, like Gecko) Chrome/120.0.0.0 Safari/537.36 OPR/106.0.0.0" etag="B8Hj3IqF9eDoULkeym9W" version="23.1.2" type="device">
  <diagram name="Page-1" id="8REppwHGiO6QFqwuP7HS">
    <mxGraphModel dx="929" dy="511" grid="1" gridSize="10" guides="1" tooltips="1" connect="1" arrows="1" fold="1" page="1" pageScale="1" pageWidth="850" pageHeight="1100" math="0" shadow="0">
      <root>
        <mxCell id="0" />
        <mxCell id="1" parent="0" />
        <mxCell id="j4LDjKllyJTs-Q91PW64-1" value="" style="ellipse;fillColor=#000000;" vertex="1" parent="1">
          <mxGeometry x="330" y="210" width="30" height="30" as="geometry" />
        </mxCell>
        <mxCell id="j4LDjKllyJTs-Q91PW64-2" value="" style="endArrow=classic;html=1;rounded=0;" edge="1" parent="1">
          <mxGeometry width="50" height="50" relative="1" as="geometry">
            <mxPoint x="360" y="225" as="sourcePoint" />
            <mxPoint x="420" y="224.86" as="targetPoint" />
          </mxGeometry>
        </mxCell>
        <mxCell id="j4LDjKllyJTs-Q91PW64-3" value="Main.Idle" style="rounded=1;whiteSpace=wrap;html=1;" vertex="1" parent="1">
          <mxGeometry x="420" y="195" width="120" height="60" as="geometry" />
        </mxCell>
        <mxCell id="j4LDjKllyJTs-Q91PW64-4" value="Processing&lt;br&gt;Command" style="rounded=1;whiteSpace=wrap;html=1;" vertex="1" parent="1">
          <mxGeometry x="690" y="195" width="120" height="60" as="geometry" />
        </mxCell>
        <mxCell id="j4LDjKllyJTs-Q91PW64-6" value="" style="endArrow=classic;html=1;rounded=0;exitX=1;exitY=0.5;exitDx=0;exitDy=0;" edge="1" parent="1">
          <mxGeometry width="50" height="50" relative="1" as="geometry">
            <mxPoint x="540" y="209.99999999999997" as="sourcePoint" />
            <mxPoint x="690" y="209.99999999999997" as="targetPoint" />
          </mxGeometry>
        </mxCell>
        <mxCell id="j4LDjKllyJTs-Q91PW64-7" value="receiveRequest&lt;br&gt;[floorQueueNotEmpty]" style="edgeLabel;html=1;align=center;verticalAlign=middle;resizable=0;points=[];" vertex="1" connectable="0" parent="j4LDjKllyJTs-Q91PW64-6">
          <mxGeometry x="0.0533" y="1" relative="1" as="geometry">
            <mxPoint x="-9" y="-14" as="offset" />
          </mxGeometry>
        </mxCell>
        <mxCell id="j4LDjKllyJTs-Q91PW64-10" value="" style="endArrow=classic;html=1;rounded=0;exitX=0;exitY=0.75;exitDx=0;exitDy=0;entryX=1;entryY=0.75;entryDx=0;entryDy=0;" edge="1" parent="1" source="j4LDjKllyJTs-Q91PW64-4" target="j4LDjKllyJTs-Q91PW64-3">
          <mxGeometry width="50" height="50" relative="1" as="geometry">
            <mxPoint x="530" y="280" as="sourcePoint" />
            <mxPoint x="680" y="280" as="targetPoint" />
          </mxGeometry>
        </mxCell>
        <mxCell id="j4LDjKllyJTs-Q91PW64-11" value="waitForRequest&lt;br&gt;[floorQueueIsEmpty] /&lt;br&gt;sendElevatorRequest" style="edgeLabel;html=1;align=center;verticalAlign=middle;resizable=0;points=[];" vertex="1" connectable="0" parent="1">
          <mxGeometry x="609.9971428571429" y="270" as="geometry" />
        </mxCell>
        <mxCell id="j4LDjKllyJTs-Q91PW64-12" value="Waiting&lt;br&gt;exit / sendElevatorRequest" style="rounded=1;whiteSpace=wrap;html=1;" vertex="1" parent="1">
          <mxGeometry x="690" y="420" width="120" height="60" as="geometry" />
        </mxCell>
        <mxCell id="j4LDjKllyJTs-Q91PW64-13" value="" style="endArrow=classic;html=1;rounded=0;exitX=0.25;exitY=1;exitDx=0;exitDy=0;entryX=0.25;entryY=0;entryDx=0;entryDy=0;" edge="1" parent="1" source="j4LDjKllyJTs-Q91PW64-4" target="j4LDjKllyJTs-Q91PW64-12">
          <mxGeometry width="50" height="50" relative="1" as="geometry">
            <mxPoint x="590" y="280" as="sourcePoint" />
            <mxPoint x="740" y="280" as="targetPoint" />
          </mxGeometry>
        </mxCell>
        <mxCell id="j4LDjKllyJTs-Q91PW64-14" value="waitForSpace&lt;br&gt;[elevatorQueueIsFull]" style="edgeLabel;html=1;align=center;verticalAlign=middle;resizable=0;points=[];" vertex="1" connectable="0" parent="j4LDjKllyJTs-Q91PW64-13">
          <mxGeometry x="-0.2343" y="-2" relative="1" as="geometry">
            <mxPoint x="-58" y="22" as="offset" />
          </mxGeometry>
        </mxCell>
        <mxCell id="j4LDjKllyJTs-Q91PW64-15" value="" style="endArrow=classic;html=1;rounded=0;exitX=0.25;exitY=0;exitDx=0;exitDy=0;entryX=0.75;entryY=0;entryDx=0;entryDy=0;" edge="1" parent="1" source="j4LDjKllyJTs-Q91PW64-4" target="j4LDjKllyJTs-Q91PW64-4">
          <mxGeometry width="50" height="50" relative="1" as="geometry">
            <mxPoint x="700" y="140" as="sourcePoint" />
            <mxPoint x="850" y="140" as="targetPoint" />
            <Array as="points">
              <mxPoint x="720" y="120" />
              <mxPoint x="780" y="120" />
            </Array>
          </mxGeometry>
        </mxCell>
        <mxCell id="j4LDjKllyJTs-Q91PW64-20" value="getNewRequest&lt;br&gt;[floorQueueNotEmpty] /&lt;br&gt;sendElevatorRequest" style="edgeLabel;html=1;align=center;verticalAlign=middle;resizable=0;points=[];" vertex="1" connectable="0" parent="j4LDjKllyJTs-Q91PW64-15">
          <mxGeometry x="-0.1551" y="2" relative="1" as="geometry">
            <mxPoint x="16" y="-18" as="offset" />
          </mxGeometry>
        </mxCell>
        <mxCell id="j4LDjKllyJTs-Q91PW64-16" value="" style="endArrow=classic;html=1;rounded=0;exitX=0;exitY=0.5;exitDx=0;exitDy=0;entryX=0.5;entryY=1;entryDx=0;entryDy=0;" edge="1" parent="1" source="j4LDjKllyJTs-Q91PW64-12" target="j4LDjKllyJTs-Q91PW64-3">
          <mxGeometry width="50" height="50" relative="1" as="geometry">
            <mxPoint x="590" y="410" as="sourcePoint" />
            <mxPoint x="490" y="410" as="targetPoint" />
            <Array as="points">
              <mxPoint x="480" y="450" />
            </Array>
          </mxGeometry>
        </mxCell>
        <mxCell id="j4LDjKllyJTs-Q91PW64-19" value="waitForRequest&lt;br style=&quot;border-color: var(--border-color);&quot;&gt;[floorQueueIsEmpty]" style="edgeLabel;html=1;align=center;verticalAlign=middle;resizable=0;points=[];" vertex="1" connectable="0" parent="j4LDjKllyJTs-Q91PW64-16">
          <mxGeometry x="-0.4653" y="-2" relative="1" as="geometry">
            <mxPoint y="22" as="offset" />
          </mxGeometry>
        </mxCell>
        <mxCell id="j4LDjKllyJTs-Q91PW64-18" value="" style="endArrow=classic;html=1;rounded=0;exitX=0.75;exitY=0;exitDx=0;exitDy=0;entryX=0.75;entryY=1;entryDx=0;entryDy=0;" edge="1" parent="1" source="j4LDjKllyJTs-Q91PW64-12" target="j4LDjKllyJTs-Q91PW64-4">
          <mxGeometry width="50" height="50" relative="1" as="geometry">
            <mxPoint x="780" y="330" as="sourcePoint" />
            <mxPoint x="930" y="330" as="targetPoint" />
          </mxGeometry>
        </mxCell>
        <mxCell id="j4LDjKllyJTs-Q91PW64-21" value="getNewRequest&lt;br style=&quot;border-color: var(--border-color);&quot;&gt;[floorQueueNotEmpty]" style="edgeLabel;html=1;align=center;verticalAlign=middle;resizable=0;points=[];" vertex="1" connectable="0" parent="j4LDjKllyJTs-Q91PW64-18">
          <mxGeometry x="0.1394" y="-1" relative="1" as="geometry">
            <mxPoint x="69" y="14" as="offset" />
          </mxGeometry>
        </mxCell>
      </root>
    </mxGraphModel>
  </diagram>
</mxfile>
